HIERARCHY
ROOT hip
{
	OFFSET 0.000000 0.000000 0.000000
	CHANNELS 6 Xposition Yposition Zposition Zrotation Yrotation Xrotation 
	JOINT lhipjoint
	{
		OFFSET 0.000000 0.000000 0.000000
		CHANNELS 3 Zrotation Yrotation Xrotation
		JOINT lfemur
		{
			OFFSET 1.363060 -1.794630 0.839290
			CHANNELS 3 Zrotation Yrotation Xrotation
			JOINT ltibia
			{
				OFFSET 2.448110 -6.726130 0.000000
				CHANNELS 3 Zrotation Yrotation Xrotation
				JOINT lfoot
				{
					OFFSET 2.562200 -7.039590 0.000000
					CHANNELS 3 Zrotation Yrotation Xrotation
					JOINT ltoes
					{
						OFFSET 0.157640 -0.433110 2.322550
						CHANNELS 3 Zrotation Yrotation Xrotation
						End Site
						{
							OFFSET 0.000000 0.000000 0.000000
						}
					}
				}
			}
		}
	}
	JOINT rhipjoint
	{
		OFFSET 0.000000 0.000000 0.000000
		CHANNELS 3 Zrotation Yrotation Xrotation
		JOINT rfemur
		{
			OFFSET -1.305520 -1.794630 0.839290
			CHANNELS 3 Zrotation Yrotation Xrotation
			JOINT rtibia
			{
				OFFSET -2.542530 -6.985550 0.000000
				CHANNELS 3 Zrotation Yrotation Xrotation
				JOINT rfoot
				{
					OFFSET -2.568260 -7.056230 0.000000
					CHANNELS 3 Zrotation Yrotation Xrotation
					JOINT rtoes
					{
						OFFSET -0.164730 -0.452590 2.363150
						CHANNELS 3 Zrotation Yrotation Xrotation
						End Site
						{
							OFFSET 0.000000 0.000000 0.000000
						}
					}
				}
			}
		}
	}
	JOINT lowerback
	{
		OFFSET 0.000000 0.000000 0.000000
		CHANNELS 3 Zrotation Yrotation Xrotation
		JOINT upperback
		{
			OFFSET 0.028270 2.035590 -0.193380
			CHANNELS 3 Zrotation Yrotation Xrotation
			JOINT thorax
			{
				OFFSET 0.056720 2.048850 -0.042750
				CHANNELS 3 Zrotation Yrotation Xrotation
				JOINT lowerneck
				{
					OFFSET 0.000000 0.000000 0.000000
					CHANNELS 3 Zrotation Yrotation Xrotation
					JOINT upperneck
					{
						OFFSET -0.054170 1.746240 0.172020
						CHANNELS 3 Zrotation Yrotation Xrotation
						JOINT head
						{
							OFFSET 0.104070 1.761360 -0.123970
							CHANNELS 3 Zrotation Yrotation Xrotation
							End Site
							{
								OFFSET 0.000000 0.000000 0.000000
							}
						}
					}
				}
				JOINT lclavicle
				{
					OFFSET 0.000000 0.000000 0.000000
					CHANNELS 3 Zrotation Yrotation Xrotation
					JOINT lhumerus
					{
						OFFSET 3.362410 1.200890 -0.311210
						CHANNELS 3 Zrotation Yrotation Xrotation
						JOINT lradius
						{
							OFFSET 4.983000 -0.000000 -0.000000
							CHANNELS 3 Zrotation Yrotation Xrotation
							JOINT lwrist
							{
								OFFSET 3.483560 -0.000000 -0.000000
								CHANNELS 3 Zrotation Yrotation Xrotation
								JOINT lhand
								{
									OFFSET 0.000000 0.000000 0.000000
									CHANNELS 3 Zrotation Yrotation Xrotation
									JOINT lfingers
									{
										OFFSET 0.715260 -0.000000 -0.000000
										CHANNELS 3 Zrotation Yrotation Xrotation
										End Site
										{
											OFFSET 0.000000 0.000000 0.000000
										}
									}
								}
								JOINT lthumb
								{
									OFFSET 0.000000 0.000000 0.000000
									CHANNELS 3 Zrotation Yrotation Xrotation
									End Site
									{
										OFFSET 0.000000 0.000000 0.000000
									}
								}
							}
						}
					}
				}
				JOINT rclavicle
				{
					OFFSET 0.000000 0.000000 0.000000
					CHANNELS 3 Zrotation Yrotation Xrotation
					JOINT rhumerus
					{
						OFFSET -3.136600 1.374050 -0.404650
						CHANNELS 3 Zrotation Yrotation Xrotation
						JOINT rradius
						{
							OFFSET -5.241900 -0.000000 -0.000000
							CHANNELS 3 Zrotation Yrotation Xrotation
							JOINT rwrist
							{
								OFFSET -3.444170 -0.000000 -0.000000
								CHANNELS 3 Zrotation Yrotation Xrotation
								JOINT rhand
								{
									OFFSET 0.000000 0.000000 0.000000
									CHANNELS 3 Zrotation Yrotation Xrotation
									JOINT rfingers
									{
										OFFSET -0.622530 -0.000000 -0.000000
										CHANNELS 3 Zrotation Yrotation Xrotation
										End Site
										{
											OFFSET 0.000000 0.000000 0.000000
										}
									}
								}
								JOINT rthumb
								{
									OFFSET 0.000000 0.000000 0.000000
									CHANNELS 3 Zrotation Yrotation Xrotation
									End Site
									{
										OFFSET 0.000000 0.000000 0.000000
									}
								}
							}
						}
					}
				}
			}
		}
	}
}
MOTION
Frames: 11
Frame Time: 0.008333
1.403986 16.818521 4.971797 -174.270217 -8.526267 163.771607 4.001446 3.346808 -0.762589 -17.124512 9.109843 14.145223 0.630773 3.898489 15.747470 0.753674 -1.681584 6.353954 0.020500 0.924000 2.539700 -6.703759 -2.968986 -2.988586 28.108670 0.276829 5.053403 -6.311609 -12.138084 40.533599 1.244743 -10.926757 -3.561594 -1.334200 7.314200 -20.649600 4.186554 -0.754736 22.600291 1.616019 -2.062523 -1.339982 4.446303 -1.982528 7.660961 -10.821973 -6.108237 -17.884008 8.168483 -7.891545 16.229679 2.453600 -3.427800 4.467900 0.186170 -6.891684 3.899573 -74.276422 -21.555978 51.885962 82.542913 -60.498517 -37.931973 1.048846 2.945909 85.417401 10.018847 12.546085 2.528600 -7.125000 0.000000 0.000000 -12.579400 41.051800 1.247100 4.465079 7.011742 4.677245 62.542239 13.933523 43.489795 -120.685431 46.853226 -82.278195 0.152166 -1.055462 175.167975 -5.343048 -7.085741 0.751500 7.125000 0.000000 0.000000 18.268900 -37.564900 3.484800 
1.396538 16.818425 4.971217 -174.268480 -8.576807 163.774438 4.008351 3.351132 -0.773363 -17.163057 9.077365 14.197478 0.621658 3.878465 15.684815 0.754600 -1.683863 6.391362 0.026300 1.046600 2.877100 -6.715938 -2.979373 -2.959147 28.143000 0.428874 4.708059 -6.419619 -12.264043 41.013671 1.265159 -11.086951 -3.396366 -1.295000 7.209900 -20.338800 4.151428 -0.780248 22.696309 1.618793 -2.109142 -1.331702 4.506040 -2.014431 7.661990 -10.841971 -6.139831 -17.843904 8.147046 -7.930383 16.355201 2.441100 -3.447800 4.504900 0.197852 -6.903897 3.915315 -74.744528 -21.089809 50.939939 82.703226 -60.544666 -38.186219 1.216750 2.899932 86.929609 10.821619 12.527286 2.657900 -7.125000 0.000000 0.000000 -11.873700 40.997800 1.190800 4.491580 7.033798 4.691561 62.102145 13.327985 41.991030 -120.982673 46.890387 -82.821472 0.075940 -0.958736 174.408437 -6.940158 -7.871046 1.074700 7.125000 0.000000 0.000000 17.057800 -38.338400 2.899300 
1.389669 16.818618 4.970540 -174.268531 -8.622476 163.768016 4.012531 3.357486 -0.784816 -17.168480 9.119960 14.240612 0.610406 3.852636 15.608159 0.763856 -1.720806 6.483400 0.031000 1.137500 3.127100 -6.729280 -2.988459 -2.933020 28.172855 0.574100 4.378099 -6.522132 -12.382990 41.470239 1.271409 -11.153525 -3.282411 -1.237900 7.055400 -19.879700 4.107444 -0.804825 22.787489 1.626181 -2.157669 -1.319881 4.620662 -2.056128 7.683920 -10.940843 -6.167845 -17.794531 8.141640 -7.964334 16.484527 2.456200 -3.467500 4.541500 0.192026 -6.909261 3.928869 -75.154754 -20.729756 50.082362 83.021535 -60.559939 -38.549834 1.387835 2.842300 88.608845 11.610602 12.530091 2.788000 -7.125000 0.000000 0.000000 -11.186100 40.965900 1.128800 4.539183 7.028934 4.718150 61.343055 13.112270 40.823734 -121.220398 46.900599 -83.294510 0.029259 -0.895542 173.840545 -7.862256 -8.360977 1.284400 7.125000 0.000000 0.000000 16.354100 -38.817500 2.572200 
1.383769 16.820553 4.970346 -174.243560 -8.658705 163.785284 4.019419 3.363470 -0.797798 -17.159788 9.131578 14.281215 0.596463 3.818212 15.503320 0.765328 -1.725162 6.554834 0.033100 1.175100 3.230700 -6.745222 -2.999524 -2.900783 28.255556 0.792685 4.039486 -6.619542 -12.492697 41.897447 1.276341 -11.210139 -3.226204 -1.121600 6.727500 -18.910500 4.102002 -0.833536 22.851772 1.630625 -2.208562 -1.307782 4.679341 -2.090820 7.705591 -10.997738 -6.186530 -17.718595 8.142354 -8.001036 16.615001 2.468400 -3.487800 4.568400 0.168151 -6.918841 3.934711 -75.390758 -20.315640 49.342179 83.711395 -60.497844 -39.195666 1.547080 2.760026 90.318021 12.300628 12.476147 2.881600 -7.125000 0.000000 0.000000 -10.589600 40.879100 1.089900 4.594247 7.027673 4.752485 60.513156 13.014505 39.902450 -121.569566 46.839784 -83.859753 -0.002145 -0.877109 173.683539 -8.028142 -8.863843 1.384400 7.125000 0.000000 0.000000 16.308900 -39.297200 2.365500 
1.377868 16.822100 4.970443 -174.223652 -8.693241 163.788464 4.024990 3.369356 -0.811695 -17.137179 9.193971 14.318960 0.581875 3.781471 15.395435 0.774819 -1.762788 6.658465 0.030600 1.129100 3.104100 -6.760368 -3.009940 -2.871674 28.322539 0.998422 3.721289 -6.706769 -12.591756 42.282922 1.266386 -11.168108 -3.167395 -1.011100 6.398000 -17.943600 4.103891 -0.858431 22.923051 1.635827 -2.255914 -1.293149 4.737621 -2.123753 7.726680 -11.081723 -6.207579 -17.609151 8.151518 -8.049011 16.734624 2.493700 -3.515200 4.583200 0.131003 -6.938510 3.938605 -75.515136 -19.899608 48.745955 84.635749 -60.374138 -40.016986 1.675619 2.677498 91.798048 12.838209 12.408451 2.943900 -7.125000 0.000000 0.000000 -10.128300 40.783700 1.065400 4.652137 7.026102 4.786721 59.685440 12.836300 39.104665 -122.146566 46.688321 -84.653782 -0.015786 -0.898746 174.005865 -7.472987 -9.378373 1.360600 7.125000 0.000000 0.000000 16.904900 -39.769100 2.254300 
1.373322 16.824325 4.970830 -174.223840 -8.718682 163.812267 4.032181 3.375845 -0.824972 -17.139963 9.242923 14.337185 0.567773 3.747190 15.293912 0.783747 -1.797544 6.758083 0.034400 1.197100 3.291400 -6.775804 -3.019011 -2.839962 28.384522 1.256413 3.404590 -6.781596 -12.675557 42.609628 1.249550 -11.081692 -3.122251 -0.894300 6.027500 -16.864300 4.077477 -0.873636 22.981800 1.638220 -2.289824 -1.281362 4.790435 -2.148279 7.726314 -11.152949 -6.220095 -17.461450 8.155441 -8.091467 16.861690 2.514200 -3.540500 4.589300 0.089324 -6.964984 3.939352 -75.542566 -19.466136 48.227750 85.660625 -60.198933 -40.925387 1.766500 2.596128 92.951216 13.207899 12.279082 2.959500 -7.125000 0.000000 0.000000 -9.811200 40.634200 1.067900 4.709458 7.030721 4.821679 58.885186 12.669210 38.380813 -122.812017 46.481032 -85.531389 -0.012006 -0.953052 174.700617 -6.209242 -9.841852 1.186400 7.125000 0.000000 0.000000 18.119000 -40.159200 2.247300 
1.368582 16.825873 4.971894 -174.218121 -8.734843 163.859157 4.039768 3.381373 -0.838393 -17.156967 9.247388 14.347989 0.554427 3.713818 15.191719 0.782743 -1.790755 6.828594 0.040000 1.290100 3.547300 -6.793522 -3.030194 -2.805063 28.451613 1.545309 3.066754 -6.842571 -12.743340 42.873223 1.225175 -10.944700 -3.080675 -0.793700 5.686800 -15.878300 4.077531 -0.894586 23.020556 1.641885 -2.329579 -1.269403 4.835610 -2.172462 7.734697 -11.254407 -6.232960 -17.322796 8.163332 -8.133048 17.002576 2.546600 -3.566800 4.606500 0.040384 -6.992838 3.938663 -75.520672 -19.049122 47.684354 86.637643 -59.997005 -41.827051 1.818484 2.520233 93.706015 13.436779 12.077964 2.931000 -7.125000 0.000000 0.000000 -9.613700 40.421700 1.096800 4.764212 7.032477 4.854045 58.092540 12.495425 37.607133 -123.569252 46.221477 -86.512275 0.003881 -1.027783 175.544374 -4.375351 -10.259736 0.873200 7.125000 0.000000 0.000000 19.825700 -40.466800 2.320500 
1.365196 16.827131 4.972668 -174.217398 -8.741837 163.886218 4.045780 3.387370 -0.853290 -17.134427 9.353051 14.353000 0.538772 3.673154 15.074296 0.795351 -1.840939 6.954317 0.039700 1.286700 3.538100 -6.810680 -3.040158 -2.772017 28.526618 1.849630 2.776068 -6.886100 -12.792066 43.061406 1.193746 -10.755734 -3.035372 -0.716400 5.408700 -15.078200 4.078928 -0.904048 23.081512 1.644629 -2.354355 -1.256529 4.880382 -2.188951 7.732618 -11.365245 -6.240760 -17.155375 8.181359 -8.176437 17.141594 2.586200 -3.594700 4.616300 -0.003949 -7.020876 3.944889 -75.500736 -18.699573 47.032841 87.240292 -59.846346 -42.466960 1.845301 2.463303 94.122139 13.606713 11.905565 2.902900 -7.125000 0.000000 0.000000 -9.468900 40.244800 1.121600 4.812856 7.029770 4.883997 57.378542 12.294546 36.661394 -124.301804 45.955234 -87.487874 0.033467 -1.110510 176.309355 -2.159268 -10.506945 0.443000 7.125000 0.000000 0.000000 21.815100 -40.576600 2.516700 
1.363068 16.829839 4.973055 -174.206242 -8.774905 163.939413 4.053578 3.392015 -0.869208 -17.111982 9.418850 14.348565 0.521037 3.627539 14.940894 0.806113 -1.881931 7.086901 0.039900 1.288600 3.543200 -6.829388 -3.052263 -2.735380 28.625648 2.195558 2.474932 -6.914901 -12.823685 43.181738 1.163628 -10.572000 -3.052124 -0.643800 5.133000 -14.288200 4.108201 -0.911603 23.101742 1.645477 -2.374234 -1.242930 4.886479 -2.195861 7.745769 -11.453411 -6.259782 -16.986760 8.188724 -8.237600 17.282488 2.618300 -3.632200 4.624300 -0.051379 -7.043685 3.953057 -75.395258 -18.394645 46.315628 87.683537 -59.701555 -43.013187 1.838199 2.418119 94.286311 13.620680 11.736877 2.854000 -7.125000 0.000000 0.000000 -9.464100 40.086000 1.158400 4.852991 7.025832 4.912348 56.831220 12.049000 35.427130 -125.015928 45.688575 -88.478375 0.078719 -1.192717 176.723522 0.232432 -10.499817 -0.049100 7.125000 0.000000 0.000000 23.862800 -40.427900 2.879200 
1.360940 16.833902 4.972765 -174.197278 -8.806473 163.994208 4.059281 3.397231 -0.883932 -17.087348 9.482558 14.360235 0.499153 3.568041 14.766484 0.810771 -1.897133 7.231866 0.041900 1.321400 3.633600 -6.849138 -3.063699 -2.700211 28.719079 2.540315 2.186831 -6.926171 -12.836606 43.226654 1.126259 -10.336186 -3.046270 -0.611100 5.003400 -13.918100 4.124857 -0.919282 23.122892 1.650114 -2.393688 -1.230308 4.913380 -2.206568 7.750541 -11.552549 -6.268720 -16.794989 8.196909 -8.287749 17.411040 2.652900 -3.665300 4.618800 -0.092199 -7.067757 3.964781 -75.217618 -18.115239 45.527864 87.980260 -59.568916 -43.470704 1.801966 2.402518 94.215949 13.487537 11.678703 2.819600 -7.125000 0.000000 0.000000 -9.593700 40.052700 1.182500 4.875072 7.018752 4.936312 56.635524 11.778663 33.800818 -125.523452 45.503836 -89.281255 0.129462 -1.269204 176.723782 2.470942 -10.393815 -0.511600 7.125000 0.000000 0.000000 25.723300 -40.196500 3.300300 
1.359392 16.838448 4.972571 -174.176228 -8.829808 164.053649 4.065089 3.401581 -0.899656 -17.040438 9.576046 14.393268 0.470508 3.486862 14.532685 0.816812 -1.917160 7.417244 0.044500 1.361300 3.743500 -6.867659 -3.077939 -2.665358 28.800417 2.866349 1.891058 -6.920536 -12.833362 43.202178 1.076185 -10.010802 -3.061347 -0.559300 4.790100 -13.311000 4.181771 -0.920480 23.137439 1.651775 -2.401997 -1.216406 4.891821 -2.204305 7.760070 -11.631263 -6.284707 -16.602034 8.204964 -8.352979 17.562408 2.685500 -3.706300 4.624100 -0.137670 -7.088569 3.979121 -74.926473 -17.911256 44.676252 88.055663 -59.461736 -43.794279 1.753034 2.420803 94.032272 13.288238 11.852490 2.845700 -7.125000 0.000000 0.000000 -9.800300 40.261200 1.157700 4.886844 7.011801 4.959018 56.595885 11.444034 32.008489 -125.937118 45.351390 -90.021574 0.200460 -1.337772 176.087586 4.737157 -9.866418 -0.945200 7.125000 0.000000 0.000000 27.426400 -39.580700 4.021100 
